<svg width="115" height="31" viewBox="0 0 115 31" fill="none" xmlns="http://www.w3.org/2000/svg">
<path d="M49.6431 20.8176L48.4024 24.6416C48.3682 24.769 48.2496 24.8554 48.118 24.8485H45.1247C44.9438 24.8485 44.8926 24.7451 44.9176 24.5904L50.0847 9.6824C50.2607 9.17551 50.3484 8.6422 50.3441 8.10565C50.3417 8.06141 50.3564 8.01795 50.3853 7.98431C50.4141 7.95067 50.4548 7.92945 50.4989 7.92506H54.6335C54.7581 7.92506 54.8143 7.95112 54.8406 8.07959L60.7024 24.6167C60.7536 24.7413 60.7287 24.8485 60.5778 24.8485H57.219C57.1578 24.8569 57.0957 24.8433 57.0436 24.8102C56.9915 24.7771 56.9529 24.7266 56.9346 24.6677L55.6175 20.8176H49.6431ZM50.5726 17.5884H54.6559L54.2629 16.3232C53.7213 14.6027 53.0004 12.3636 52.6142 10.922H52.588C52.1751 12.6533 51.2448 15.4957 50.5726 17.5884ZM61.1139 18.539C61.1128 14.8446 63.8766 11.7441 68.606 11.7441C68.8119 11.7441 69.0714 11.7701 69.4593 11.7951V6.70521C69.4546 6.66424 69.4656 6.62301 69.49 6.5898C69.5145 6.55659 69.5506 6.53387 69.5911 6.5262L72.8951 6.5244C73.02 6.5244 73.0512 6.57539 73.0512 6.67893V21.9488C73.0449 22.5794 73.0794 23.2098 73.1545 23.8359C73.1545 23.9357 73.1379 23.9916 73.0521 24.0358L72.9739 24.0677C71.3642 24.7518 69.6329 25.1035 67.8839 25.1018C64.0599 25.1018 61.1141 22.9316 61.1141 18.5387M69.4595 14.8693C69.1507 14.77 68.8265 14.7278 68.5026 14.7446C68.0357 14.7105 67.5667 14.7719 67.1242 14.925C66.6817 15.0781 66.2751 15.3197 65.929 15.6351C65.583 15.9505 65.3048 16.3331 65.1115 16.7595C64.9182 17.1859 64.8137 17.6472 64.8045 18.1154L64.8085 18.3615C64.8085 20.9196 66.2815 22.031 68.2446 22.031C68.6554 22.0484 69.0662 21.9961 69.4595 21.8762V14.8693ZM87.8392 18.0857L87.8485 18.3566C87.8485 22.4137 85.2131 25.1003 81.4875 25.1003C77.0688 25.1003 75.1055 21.7677 75.1055 18.4339C75.0544 17.5636 75.1838 16.6923 75.4857 15.8745C75.7875 15.0567 76.2551 14.3102 76.8593 13.6818C77.4634 13.0534 78.191 12.5567 78.9963 12.223C79.8016 11.8893 80.6672 11.7257 81.5387 11.7425C85.5916 11.7425 87.7321 14.7101 87.8392 18.0857ZM78.7486 18.3788C78.7486 20.6525 79.8077 22.0992 81.5387 22.0992C83.0355 22.0992 84.1741 20.8071 84.1741 18.4298C84.1741 16.4144 83.3473 14.7357 81.3842 14.7357C79.8874 14.7357 78.7486 16.0788 78.7486 18.3788ZM90.126 6.52395L93.2777 6.5226C93.4846 6.5226 93.536 6.54888 93.536 6.72969V12.0266C94.1017 11.8748 94.6819 11.7832 95.2669 11.7533L95.706 11.7423C96.5006 11.7028 97.295 11.8241 98.0417 12.099C98.7883 12.3738 99.4718 12.7965 100.051 13.3417C100.631 13.8869 101.094 14.5434 101.414 15.272C101.734 16.0005 101.903 16.7861 101.912 17.5817L101.907 17.8923C101.907 22.7241 98.0832 25.1014 94.1568 25.1014C92.7822 25.1109 91.4141 24.9107 90.0997 24.5077C90.0538 24.4817 90.0154 24.4442 89.9883 24.399C89.9612 24.3537 89.9463 24.3022 89.945 24.2494V6.70521C89.945 6.58055 89.9962 6.5244 90.126 6.5244M95.2828 14.7878L95.0611 14.7909C94.5457 14.7848 94.0322 14.8546 93.5371 14.998V22C93.746 22.0483 93.9585 22.0799 94.1723 22.0943L94.4935 22.1033C95.004 22.1322 95.5147 22.0508 95.9909 21.8644C96.467 21.678 96.8973 21.3911 97.2525 21.0233C97.6077 20.6555 97.8794 20.2154 98.049 19.7331C98.2187 19.2508 98.2823 18.7375 98.2355 18.2283C98.2926 17.804 98.2594 17.3724 98.1379 16.9618C98.0164 16.5513 97.8094 16.171 97.5305 15.8461C97.2517 15.5212 96.9072 15.259 96.5199 15.0766C96.1325 14.8942 95.7109 14.7957 95.2828 14.7878ZM106.956 19.3635C107.08 20.8365 108.118 22.0512 110.65 22.0512C111.739 22.0714 112.82 21.869 113.828 21.4564C113.907 21.4052 113.984 21.4301 113.984 21.5811V24.0354C113.984 24.2162 113.933 24.2937 113.803 24.346C112.687 24.8455 111.479 25.1037 110.256 25.1038L109.849 25.0942C104.993 25.0942 103.286 21.7617 103.286 18.5576C103.286 15.0809 105.374 11.8995 109.238 11.7425L109.539 11.7365C110.273 11.7095 111.005 11.8365 111.687 12.1092C112.369 12.3819 112.987 12.7944 113.501 13.32C114.014 13.8457 114.412 14.4729 114.668 15.1614C114.925 15.85 115.035 16.5845 114.99 17.318C115.009 17.8978 114.968 18.478 114.866 19.0491C114.862 19.1027 114.839 19.1531 114.801 19.1911C114.763 19.2291 114.712 19.2521 114.659 19.2559C113.995 19.3188 113.33 19.354 112.663 19.3615L106.956 19.3635ZM110.315 16.8578C110.746 16.8739 111.178 16.8569 111.607 16.8068V16.6257C111.599 16.3467 111.536 16.0719 111.421 15.8176C111.306 15.5632 111.141 15.3343 110.937 15.1442C110.732 14.9541 110.492 14.8067 110.23 14.7105C109.968 14.6143 109.689 14.5714 109.41 14.584C108.785 14.5741 108.179 14.8043 107.717 15.2271C107.256 15.65 106.974 16.2335 106.929 16.8578H110.315ZM16.9162 11.8923L24.8822 30.7927H19.6612L17.2778 24.7737H11.4483L16.9162 11.8923ZM33.8259 0.855713V30.7892L21.3201 0.855713H33.8259ZM12.511 0.855713L0 30.7892V0.855713H12.511Z" fill="#858585" fill-opacity="0.5"/>
</svg>
