<svg width="79" height="32" viewBox="0 0 79 32" fill="none" xmlns="http://www.w3.org/2000/svg">
<path d="M15.3612 29.3948V31.5742H0V29.3948H15.3612ZM39.367 29.3948C37.8262 30.8017 35.8078 31.5799 33.7146 31.5741L17.5556 31.5526V29.3948H39.367ZM62.2073 29.3948L61.441 31.5741L60.6816 29.3948H62.2073ZM54.8612 29.3948V31.5742H43.889V29.3948H54.8612ZM79 29.3948V31.5742H68.0278V29.3948H79ZM41.8526 25.2345C41.6641 25.999 41.3668 26.7328 40.9697 27.4138H17.5556V25.2345H41.8526ZM63.6779 25.2345L62.9078 27.414H59.9812L59.211 25.2345H63.6779ZM54.8612 25.2345V27.4138H43.889V25.2345H54.8612ZM79 25.2345V27.4138H68.0278V25.2345H79ZM15.3612 25.2345V27.4138H0V25.2345H15.3612ZM10.9721 21.0738V23.2533H4.38882V21.0738H10.9721ZM28.5276 21.0738V23.2533H21.9443V21.0738H28.5276ZM41.7998 21.0738C41.9943 21.7842 42.093 22.5171 42.0933 23.2533H34.7122V21.0738H41.7998ZM65.1486 21.0738L64.3782 23.2533H58.5105L57.7399 21.0738H65.1486ZM54.861 21.0738V23.2533H48.2776V21.0738H54.861ZM74.611 21.0738V23.2533H68.0276V21.0738H74.611ZM10.9721 16.9134V19.0927H4.38882V16.9134H10.9721ZM54.861 16.9134V19.0927H48.2776V16.9134H54.861ZM74.611 16.9134V19.0927H68.0276V16.9134H74.611ZM39.1366 16.9134C39.8675 17.5308 40.4866 18.2678 40.9671 19.0925H21.9444V16.9133L39.1366 16.9134ZM66.6194 16.9134L65.8491 19.0927H57.0395L56.2693 16.9133L66.6194 16.9134ZM60.8274 12.753L61.4443 14.5146L62.061 12.753H74.6109V14.9323H68.028V12.93L67.3197 14.9324H55.5691L54.861 12.9297V14.9324H48.278V12.753H60.8274ZM21.9443 12.753H40.9674C40.4868 13.5778 39.8677 14.3149 39.1368 14.9323H21.9444L21.9443 12.753ZM10.9721 12.753V14.9323H4.38882V12.7529L10.9721 12.753ZM10.9721 8.59246V10.7717H4.38882V8.59246H10.9721ZM28.5276 8.59246V10.7717H21.9443V8.59246H28.5276ZM42.0934 8.59246C42.0931 9.32858 41.9943 10.0614 41.7998 10.7717H34.7122V8.59246H42.0934ZM59.3705 8.59246L60.1337 10.7717H48.278V8.59246H59.3705ZM74.6109 8.59246V10.7717H62.755L63.518 8.59246H74.6109ZM15.3609 4.4319V6.61132H0V4.43175L15.3609 4.4319ZM40.9695 4.4319C41.3667 5.11293 41.664 5.84674 41.8524 6.61117H17.5553V4.4319H40.9695ZM78.9998 4.4319V6.61117H64.2117L64.9749 4.4319H78.9998ZM57.9136 4.4319L58.6768 6.61117H43.8888V4.4319H57.9136ZM15.3613 0.271645V2.45076H0V0.271492L15.3613 0.271645ZM33.7146 0.271492C35.8072 0.268649 37.8245 1.04643 39.367 2.45076H17.5556V0.271492H33.7146ZM79 0.271492V2.45091H65.6688L66.4319 0.271645L79 0.271492ZM56.4572 0.271492L57.2202 2.45091H43.889V0.271645L56.4572 0.271492Z" fill="#858585" fill-opacity="0.5"/>
</svg>
