<svg width="39" height="39" viewBox="0 0 39 39" fill="none" xmlns="http://www.w3.org/2000/svg">
<path d="M8.36766 2.1667C8.36242 1.93176 8.29106 1.70306 8.16176 1.50682C8.03246 1.31059 7.85047 1.15478 7.63665 1.05727C7.42284 0.959759 7.18586 0.924495 6.95292 0.955526C6.71998 0.986557 6.5005 1.08262 6.31966 1.23271C3.92166 3.2227 2.46066 4.74469 1.61566 6.14269C0.723664 7.61169 0.555664 8.87468 0.555664 10.1917C0.555664 11.6504 1.13513 13.0493 2.16658 14.0808C3.19803 15.1122 4.59697 15.6917 6.05566 15.6917C7.51435 15.6917 8.9133 15.1122 9.94475 14.0808C10.9762 13.0493 11.5557 11.6504 11.5557 10.1917C11.5557 8.39668 10.6657 7.18569 9.96566 6.23469L9.76266 5.95669C9.03866 4.95269 8.40766 3.9497 8.36766 2.1667ZM12.4697 6.36469C13.7463 5.75787 15.1422 5.44357 16.5557 5.44469C21.4647 5.44469 25.5037 9.16768 26.0037 13.9447H21.8057C20.1481 13.9447 18.5583 14.6031 17.3862 15.7752C16.2141 16.9473 15.5557 18.537 15.5557 20.1946V24.3926C14.8535 24.3199 14.1618 24.1682 13.4937 23.9406C13.4445 24.7932 13.3752 25.6444 13.2857 26.4936C14.0177 26.7016 14.7743 26.8383 15.5557 26.9036V30.6946C15.5557 32.3522 16.2141 33.9419 17.3862 35.114C18.5583 36.2861 20.1481 36.9446 21.8057 36.9446H32.3057C33.9633 36.9446 35.553 36.2861 36.7251 35.114C37.8972 33.9419 38.5557 32.3522 38.5557 30.6946V20.1946C38.5557 18.537 37.8972 16.9473 36.7251 15.7752C35.553 14.6031 33.9633 13.9447 32.3057 13.9447H28.5147C28.0067 7.78469 22.8467 2.9447 16.5547 2.9447C14.6343 2.94184 12.7415 3.40182 11.0367 4.2857C11.1417 4.4477 11.2577 4.6127 11.3847 4.78869L11.5747 5.04569C11.8247 5.38069 12.1537 5.82169 12.4707 6.36569M28.4617 16.4447H32.3047C33.2992 16.4447 34.2531 16.8397 34.9563 17.543C35.6596 18.2463 36.0547 19.2001 36.0547 20.1946V30.6946C36.0547 31.6892 35.6596 32.643 34.9563 33.3462C34.2531 34.0495 33.2992 34.4446 32.3047 34.4446H21.8047C20.8101 34.4446 19.8563 34.0495 19.153 33.3462C18.4498 32.643 18.0547 31.6892 18.0547 30.6946V26.8516C20.6983 26.5177 23.1557 25.3139 25.0398 23.4298C26.924 21.5456 28.1278 19.0882 28.4617 16.4447ZM25.9367 16.4447C25.6194 18.4207 24.6867 20.2463 23.2715 21.6615C21.8563 23.0767 20.0307 24.0093 18.0547 24.3266V20.1946C18.0547 19.2001 18.4498 18.2463 19.153 17.543C19.8563 16.8397 20.8101 16.4447 21.8047 16.4447H25.9367ZM1.38666 16.6117C1.44466 16.4763 1.50733 16.3417 1.57466 16.2077C2.86854 17.174 4.44075 17.695 6.05566 17.6927C7.67195 17.6948 9.24534 17.1727 10.5397 16.2047C10.6077 16.3393 10.671 16.4757 10.7297 16.6137C11.4297 18.2627 11.5557 20.2786 11.5557 21.8916C11.5557 24.5316 11.1477 28.5716 10.3997 31.9716C10.0267 33.6646 9.55466 35.2716 8.96966 36.4846C8.67966 37.0876 8.32866 37.6616 7.89666 38.1006C7.46166 38.5426 6.84466 38.9446 6.05966 38.9446C5.27466 38.9446 4.65766 38.5436 4.22266 38.1016C3.79066 37.6616 3.43966 37.0886 3.14866 36.4856C2.56266 35.2726 2.08866 33.6656 1.71566 31.9726C0.965664 28.5726 0.555664 24.5326 0.555664 21.8916C0.555664 20.2776 0.683664 18.2617 1.38666 16.6117Z" fill="white"/>
</svg>
