<svg width="40" height="30" viewBox="0 0 40 30" fill="none" xmlns="http://www.w3.org/2000/svg">
<path d="M35.4478 0.492159C35.0201 0.21913 34.5311 0.0539533 34.0236 0.011148C33.5161 -0.0316573 33.0057 0.0492197 32.5373 0.246669L17.1891 6.21206C16.8261 6.35922 16.4372 6.4343 16.0448 6.43301H6.21891C5.39423 6.43301 4.60333 6.75631 4.02019 7.33178C3.43705 7.90726 3.10945 8.68778 3.10945 9.50162V9.74711H0V17.1118H3.10945V17.4309C3.12894 18.232 3.46512 18.9937 4.04616 19.5533C4.6272 20.113 5.407 20.4261 6.21891 20.4259L9.95025 28.2325C10.2029 28.7582 10.6007 29.2029 11.0979 29.5155C11.5951 29.8282 12.1716 29.9961 12.7612 30H14.3284C15.1487 29.9935 15.9332 29.6674 16.511 29.0926C17.0888 28.5178 17.413 27.741 17.4129 26.9314V20.7205L32.5373 26.6859C32.9098 26.8303 33.3063 26.9052 33.7065 26.9068C34.3274 26.8955 34.9319 26.7081 35.4478 26.3668C35.8569 26.0941 36.1944 25.7293 36.4323 25.3024C36.6702 24.8755 36.8017 24.3989 36.8159 23.9119V3.0207C36.8136 2.52117 36.6878 2.02974 36.4494 1.58909C36.211 1.14844 35.8671 0.771895 35.4478 0.492159ZM14.3035 9.50162V17.4309H6.21891V9.50162H14.3035ZM14.3035 26.9314H12.7363L9.67662 20.4259H14.3035V26.9314ZM18.3333 17.7992C18.0379 17.6503 17.73 17.5271 17.4129 17.4309V9.32978C17.7269 9.26538 18.0347 9.17505 18.3333 9.05974L33.7065 3.0207V23.8382L18.3333 17.7992ZM36.8905 10.3608V16.4981C37.7152 16.4981 38.5061 16.1748 39.0893 15.5993C39.6724 15.0238 40 14.2433 40 13.4295C40 12.6156 39.6724 11.8351 39.0893 11.2596C38.5061 10.6841 37.7152 10.3608 36.8905 10.3608Z" fill="white"/>
</svg>
