<svg width="40" height="40" viewBox="0 0 40 40" fill="none" xmlns="http://www.w3.org/2000/svg">
<path d="M1 20H3.11111M20 1V3.11111M36.8889 20H39M6.48889 6.48889L7.96667 7.96667M33.5111 6.48889L32.0333 7.96667M15.1444 30.5556H24.8556M13.6667 28.4444C11.8943 27.1152 10.5851 25.262 9.92458 23.1473C9.26401 21.0327 9.28554 18.7638 9.98612 16.662C10.6867 14.5603 12.0308 12.7323 13.8281 11.4369C15.6253 10.1415 17.7846 9.44444 20 9.44444C22.2154 9.44444 24.3747 10.1415 26.1719 11.4369C27.9692 12.7323 29.3133 14.5603 30.0139 16.662C30.7145 18.7638 30.736 21.0327 30.0754 23.1473C29.4149 25.262 28.1057 27.1152 26.3333 28.4444C25.5091 29.2604 24.8885 30.2588 24.5217 31.3591C24.155 32.4594 24.0524 33.6305 24.2222 34.7778C24.2222 35.8976 23.7774 36.9715 22.9856 37.7633C22.1937 38.5552 21.1198 39 20 39C18.8802 39 17.8063 38.5552 17.0144 37.7633C16.2226 36.9715 15.7778 35.8976 15.7778 34.7778C15.9476 33.6305 15.845 32.4594 15.4783 31.3591C15.1115 30.2588 14.4909 29.2604 13.6667 28.4444Z" stroke="white" stroke-width="2" stroke-linecap="round" stroke-linejoin="round"/>
</svg>
