<svg width="38" height="39" viewBox="0 0 38 39" fill="none" xmlns="http://www.w3.org/2000/svg">
<path fill-rule="evenodd" clip-rule="evenodd" d="M34.5098 15.951C33.9088 9.75002 30.2639 0 18.9998 0C7.73567 0 4.09078 9.75002 3.4898 15.951C1.38141 16.7558 -0.00931357 18.7918 4.69619e-05 21.06V23.79C4.69619e-05 26.8055 2.43051 29.25 5.42852 29.25C8.42662 29.25 10.8571 26.8054 10.8571 23.79V21.06C10.8473 18.8407 9.50772 16.8466 7.46421 16.0095C7.85199 12.4215 9.752 3.90003 18.9998 3.90003C28.2477 3.90003 30.1282 12.4215 30.516 16.0095C28.4767 16.8484 27.1439 18.8439 27.1426 21.06V23.79C27.1468 24.8174 27.438 25.8229 27.9831 26.6918C28.5281 27.5607 29.3051 28.2579 30.2252 28.704C29.4109 30.2445 27.3364 32.331 22.2375 32.9549C21.2183 31.3983 19.2463 30.7846 17.5311 31.4903C15.8159 32.196 14.8369 34.0238 15.1946 35.8527C15.5523 37.6816 17.1466 39 18.9998 39C19.7179 38.996 20.4208 38.7915 21.0301 38.4093C21.6394 38.0271 22.1312 37.4823 22.4508 36.8355C30.768 35.8799 33.4242 31.5705 34.2578 29.0354C36.5131 28.3006 38.03 26.1743 37.9995 23.79V21.06C38.0089 18.7918 36.6182 16.7558 34.5098 15.951ZM6.97955 23.79C6.97955 24.6515 6.28515 25.3499 5.42852 25.3499C4.5719 25.3499 3.87758 24.6516 3.87758 23.79V21.06C3.87601 20.8541 3.91497 20.65 3.99222 20.4593C4.06946 20.2687 4.18345 20.0953 4.32763 19.9492C4.47181 19.803 4.64332 19.6871 4.83227 19.6079C5.02122 19.5288 5.22388 19.488 5.42857 19.488C5.63325 19.488 5.83591 19.5288 6.02486 19.6079C6.21381 19.6871 6.38532 19.803 6.5295 19.9492C6.67368 20.0953 6.78768 20.2687 6.86492 20.4593C6.94216 20.65 6.98112 20.8541 6.97955 21.06V23.79ZM31.02 21.06C31.02 20.1984 31.7144 19.5 32.5711 19.5C33.4277 19.5 34.1221 20.1984 34.1221 21.06V23.79C34.1221 24.6515 33.4277 25.3499 32.5711 25.3499C31.7144 25.3499 31.02 24.6516 31.02 23.79V21.06Z" fill="white"/>
</svg>
